<?xml version="1.0" encoding="UTF-8" standalone="no"?>
<!DOCTYPE svg PUBLIC "-//W3C//DTD SVG 1.1//EN"
 "http://www.w3.org/Graphics/SVG/1.1/DTD/svg11.dtd">
<!-- Generated by graphviz version 2.38.0 (20140413.2041)
 -->
<!-- Title: snakemake_dag Pages: 1 -->
<svg width="976pt" height="620pt"
 viewBox="0.00 0.00 976.00 620.00" xmlns="http://www.w3.org/2000/svg" xmlns:xlink="http://www.w3.org/1999/xlink">
<g id="graph0" class="graph" transform="scale(1 1) rotate(0) translate(4 616)">
<title>snakemake_dag</title>
<polygon fill="white" stroke="none" points="-4,4 -4,-616 972,-616 972,4 -4,4"/>
<!-- 0 -->
<g id="node1" class="node"><title>0</title>
<path fill="none" stroke="#56c9d8" stroke-width="2" d="M461,-36C461,-36 389,-36 389,-36 383,-36 377,-30 377,-24 377,-24 377,-12 377,-12 377,-6 383,-0 389,-0 389,-0 461,-0 461,-0 467,-0 473,-6 473,-12 473,-12 473,-24 473,-24 473,-30 467,-36 461,-36"/>
<text text-anchor="middle" x="425" y="-15.5" font-family="sans" font-size="10.00">make_summary</text>
</g>
<!-- 1 -->
<g id="node2" class="node"><title>1</title>
<path fill="none" stroke="#70d856" stroke-width="2" d="M84,-108C84,-108 12,-108 12,-108 6,-108 0,-102 0,-96 0,-96 0,-84 0,-84 0,-78 6,-72 12,-72 12,-72 84,-72 84,-72 90,-72 96,-78 96,-84 96,-84 96,-96 96,-96 96,-102 90,-108 84,-108"/>
<text text-anchor="middle" x="48" y="-87.5" font-family="sans" font-size="10.00">make_rulegraph</text>
</g>
<!-- 1&#45;&gt;0 -->
<g id="edge6" class="edge"><title>1&#45;&gt;0</title>
<path fill="none" stroke="grey" stroke-width="2" d="M96.2828,-75.2547C100.904,-74.0921 105.531,-72.9859 110,-72 198.874,-52.3915 303.255,-36.1424 366.736,-27.004"/>
<polygon fill="grey" stroke="grey" stroke-width="2" points="367.544,-30.4242 376.948,-25.5445 366.553,-23.4946 367.544,-30.4242"/>
</g>
<!-- 2 -->
<g id="node3" class="node"><title>2</title>
<path fill="none" stroke="#8fd856" stroke-width="2" d="M253.5,-612C253.5,-612 140.5,-612 140.5,-612 134.5,-612 128.5,-606 128.5,-600 128.5,-600 128.5,-588 128.5,-588 128.5,-582 134.5,-576 140.5,-576 140.5,-576 253.5,-576 253.5,-576 259.5,-576 265.5,-582 265.5,-588 265.5,-588 265.5,-600 265.5,-600 265.5,-606 259.5,-612 253.5,-612"/>
<text text-anchor="middle" x="197" y="-591.5" font-family="sans" font-size="10.00">get_codon_variant_table</text>
</g>
<!-- 2&#45;&gt;0 -->
<g id="edge3" class="edge"><title>2&#45;&gt;0</title>
<path fill="none" stroke="grey" stroke-width="2" d="M174.174,-575.949C163.138,-566.532 150.656,-553.929 143,-540 123.519,-504.554 124,-491.447 124,-451 124,-451 124,-451 124,-161 124,-54.7041 279.44,-27.85 366.916,-21.1536"/>
<polygon fill="grey" stroke="grey" stroke-width="2" points="367.242,-24.6394 376.973,-20.4493 366.753,-17.6565 367.242,-24.6394"/>
</g>
<!-- 3 -->
<g id="node4" class="node"><title>3</title>
<path fill="none" stroke="#56d8c9" stroke-width="2" d="M305.5,-468C305.5,-468 186.5,-468 186.5,-468 180.5,-468 174.5,-462 174.5,-456 174.5,-456 174.5,-444 174.5,-444 174.5,-438 180.5,-432 186.5,-432 186.5,-432 305.5,-432 305.5,-432 311.5,-432 317.5,-438 317.5,-444 317.5,-444 317.5,-456 317.5,-456 317.5,-462 311.5,-468 305.5,-468"/>
<text text-anchor="middle" x="246" y="-447.5" font-family="sans" font-size="10.00">aggregate_variant_counts</text>
</g>
<!-- 2&#45;&gt;3 -->
<g id="edge14" class="edge"><title>2&#45;&gt;3</title>
<path fill="none" stroke="grey" stroke-width="2" d="M221.477,-575.768C232.404,-566.555 244.124,-554.186 250,-540 258.115,-520.41 256.391,-496.278 253.039,-478.087"/>
<polygon fill="grey" stroke="grey" stroke-width="2" points="256.43,-477.203 250.94,-468.142 249.581,-478.649 256.43,-477.203"/>
</g>
<!-- 14 -->
<g id="node15" class="node"><title>14</title>
<path fill="none" stroke="#afd856" stroke-width="2" d="M229.5,-540C229.5,-540 164.5,-540 164.5,-540 158.5,-540 152.5,-534 152.5,-528 152.5,-528 152.5,-516 152.5,-516 152.5,-510 158.5,-504 164.5,-504 164.5,-504 229.5,-504 229.5,-504 235.5,-504 241.5,-510 241.5,-516 241.5,-516 241.5,-528 241.5,-528 241.5,-534 235.5,-540 229.5,-540"/>
<text text-anchor="middle" x="197" y="-519.5" font-family="sans" font-size="10.00">count_variants</text>
</g>
<!-- 2&#45;&gt;14 -->
<g id="edge33" class="edge"><title>2&#45;&gt;14</title>
<path fill="none" stroke="grey" stroke-width="2" d="M197,-575.697C197,-567.983 197,-558.712 197,-550.112"/>
<polygon fill="grey" stroke="grey" stroke-width="2" points="200.5,-550.104 197,-540.104 193.5,-550.104 200.5,-550.104"/>
</g>
<!-- 3&#45;&gt;0 -->
<g id="edge11" class="edge"><title>3&#45;&gt;0</title>
<path fill="none" stroke="grey" stroke-width="2" d="M257.189,-431.87C273.006,-405.957 300,-354.739 300,-307 300,-307 300,-307 300,-161 300,-108.397 348.926,-66.0341 385.559,-41.6871"/>
<polygon fill="grey" stroke="grey" stroke-width="2" points="387.591,-44.5416 394.101,-36.1829 383.799,-38.6574 387.591,-44.5416"/>
</g>
<!-- 4 -->
<g id="node5" class="node"><title>4</title>
<path fill="none" stroke="#56a9d8" stroke-width="2" d="M259.5,-324C259.5,-324 164.5,-324 164.5,-324 158.5,-324 152.5,-318 152.5,-312 152.5,-312 152.5,-300 152.5,-300 152.5,-294 158.5,-288 164.5,-288 164.5,-288 259.5,-288 259.5,-288 265.5,-288 271.5,-294 271.5,-300 271.5,-300 271.5,-312 271.5,-312 271.5,-318 265.5,-324 259.5,-324"/>
<text text-anchor="middle" x="212" y="-303.5" font-family="sans" font-size="10.00">counts_to_cells_ratio</text>
</g>
<!-- 3&#45;&gt;4 -->
<g id="edge16" class="edge"><title>3&#45;&gt;4</title>
<path fill="none" stroke="grey" stroke-width="2" d="M241.899,-431.871C236.079,-407.564 225.365,-362.819 218.468,-334.013"/>
<polygon fill="grey" stroke="grey" stroke-width="2" points="221.848,-333.099 216.116,-324.189 215.041,-334.729 221.848,-333.099"/>
</g>
<!-- 5 -->
<g id="node6" class="node"><title>5</title>
<path fill="none" stroke="#59d856" stroke-width="2" d="M482.5,-396C482.5,-396 405.5,-396 405.5,-396 399.5,-396 393.5,-390 393.5,-384 393.5,-384 393.5,-372 393.5,-372 393.5,-366 399.5,-360 405.5,-360 405.5,-360 482.5,-360 482.5,-360 488.5,-360 494.5,-366 494.5,-372 494.5,-372 494.5,-384 494.5,-384 494.5,-390 488.5,-396 482.5,-396"/>
<text text-anchor="middle" x="444" y="-375.5" font-family="sans" font-size="10.00">counts_to_scores</text>
</g>
<!-- 3&#45;&gt;5 -->
<g id="edge17" class="edge"><title>3&#45;&gt;5</title>
<path fill="none" stroke="grey" stroke-width="2" d="M294.183,-431.966C321.848,-422.185 356.777,-409.836 385.948,-399.524"/>
<polygon fill="grey" stroke="grey" stroke-width="2" points="387.339,-402.744 395.601,-396.111 385.006,-396.144 387.339,-402.744"/>
</g>
<!-- 4&#45;&gt;0 -->
<g id="edge12" class="edge"><title>4&#45;&gt;0</title>
<path fill="none" stroke="grey" stroke-width="2" d="M212.559,-287.855C214.853,-245.525 226.539,-134.936 286,-72 307.247,-49.512 339.044,-36.4648 366.867,-28.9471"/>
<polygon fill="grey" stroke="grey" stroke-width="2" points="368.066,-32.2544 376.91,-26.4204 366.358,-25.4659 368.066,-32.2544"/>
</g>
<!-- 5&#45;&gt;0 -->
<g id="edge7" class="edge"><title>5&#45;&gt;0</title>
<path fill="none" stroke="grey" stroke-width="2" d="M419.415,-359.928C388.102,-335.958 338,-289.145 338,-235 338,-235 338,-235 338,-161 338,-114.161 372.843,-69.7355 398.428,-43.4277"/>
<polygon fill="grey" stroke="grey" stroke-width="2" points="401.084,-45.7221 405.692,-36.1818 396.14,-40.7663 401.084,-45.7221"/>
</g>
<!-- 6 -->
<g id="node7" class="node"><title>6</title>
<path fill="none" stroke="#56d873" stroke-width="2" d="M572.5,-324C572.5,-324 469.5,-324 469.5,-324 463.5,-324 457.5,-318 457.5,-312 457.5,-312 457.5,-300 457.5,-300 457.5,-294 463.5,-288 469.5,-288 469.5,-288 572.5,-288 572.5,-288 578.5,-288 584.5,-294 584.5,-300 584.5,-300 584.5,-312 584.5,-312 584.5,-318 578.5,-324 572.5,-324"/>
<text text-anchor="middle" x="521" y="-303.5" font-family="sans" font-size="10.00">scores_to_frac_escape</text>
</g>
<!-- 5&#45;&gt;6 -->
<g id="edge21" class="edge"><title>5&#45;&gt;6</title>
<path fill="none" stroke="grey" stroke-width="2" d="M463.034,-359.697C472.545,-351.05 484.207,-340.449 494.57,-331.027"/>
<polygon fill="grey" stroke="grey" stroke-width="2" points="497.14,-333.421 502.185,-324.104 492.431,-328.241 497.14,-333.421"/>
</g>
<!-- 6&#45;&gt;0 -->
<g id="edge8" class="edge"><title>6&#45;&gt;0</title>
<path fill="none" stroke="grey" stroke-width="2" d="M513.241,-287.939C498.135,-254.184 464.471,-176.234 444,-108 437.88,-87.6021 432.938,-64.0111 429.629,-46.2443"/>
<polygon fill="grey" stroke="grey" stroke-width="2" points="433.05,-45.4897 427.829,-36.2704 426.161,-46.7331 433.05,-45.4897"/>
</g>
<!-- 7 -->
<g id="node8" class="node"><title>7</title>
<path fill="none" stroke="#d85656" stroke-width="2" d="M778,-252C778,-252 664,-252 664,-252 658,-252 652,-246 652,-240 652,-240 652,-228 652,-228 652,-222 658,-216 664,-216 664,-216 778,-216 778,-216 784,-216 790,-222 790,-228 790,-228 790,-240 790,-240 790,-246 784,-252 778,-252"/>
<text text-anchor="middle" x="721" y="-231.5" font-family="sans" font-size="10.00">call_strong_escape_sites</text>
</g>
<!-- 6&#45;&gt;7 -->
<g id="edge22" class="edge"><title>6&#45;&gt;7</title>
<path fill="none" stroke="grey" stroke-width="2" d="M569.67,-287.966C597.614,-278.185 632.896,-265.836 662.361,-255.524"/>
<polygon fill="grey" stroke="grey" stroke-width="2" points="663.83,-258.718 672.112,-252.111 661.517,-252.111 663.83,-258.718"/>
</g>
<!-- 8 -->
<g id="node9" class="node"><title>8</title>
<path fill="none" stroke="#56d892" stroke-width="2" d="M658,-180C658,-180 590,-180 590,-180 584,-180 578,-174 578,-168 578,-168 578,-156 578,-156 578,-150 584,-144 590,-144 590,-144 658,-144 658,-144 664,-144 670,-150 670,-156 670,-156 670,-168 670,-168 670,-174 664,-180 658,-180"/>
<text text-anchor="middle" x="624" y="-159.5" font-family="sans" font-size="10.00">escape_profiles</text>
</g>
<!-- 6&#45;&gt;8 -->
<g id="edge25" class="edge"><title>6&#45;&gt;8</title>
<path fill="none" stroke="grey" stroke-width="2" d="M534.514,-287.98C542.615,-277.666 553.048,-264.189 562,-252 577.377,-231.062 594.186,-206.845 606.417,-188.964"/>
<polygon fill="grey" stroke="grey" stroke-width="2" points="609.623,-190.475 612.365,-180.241 603.84,-186.532 609.623,-190.475"/>
</g>
<!-- 9 -->
<g id="node10" class="node"><title>9</title>
<path fill="none" stroke="#d8cb56" stroke-width="2" d="M431.5,-180C431.5,-180 378.5,-180 378.5,-180 372.5,-180 366.5,-174 366.5,-168 366.5,-168 366.5,-156 366.5,-156 366.5,-150 372.5,-144 378.5,-144 378.5,-144 431.5,-144 431.5,-144 437.5,-144 443.5,-150 443.5,-156 443.5,-156 443.5,-168 443.5,-168 443.5,-174 437.5,-180 431.5,-180"/>
<text text-anchor="middle" x="405" y="-159.5" font-family="sans" font-size="10.00">output_pdbs</text>
</g>
<!-- 6&#45;&gt;9 -->
<g id="edge26" class="edge"><title>6&#45;&gt;9</title>
<path fill="none" stroke="grey" stroke-width="2" d="M496.872,-287.797C484.371,-278.157 469.383,-265.398 458,-252 441.64,-232.743 427.272,-207.814 417.639,-189.24"/>
<polygon fill="grey" stroke="grey" stroke-width="2" points="420.686,-187.511 413.047,-180.17 414.441,-190.673 420.686,-187.511"/>
</g>
<!-- 11 -->
<g id="node12" class="node"><title>11</title>
<path fill="none" stroke="#56d8a9" stroke-width="2" d="M859,-180C859,-180 777,-180 777,-180 771,-180 765,-174 765,-168 765,-168 765,-156 765,-156 765,-150 771,-144 777,-144 777,-144 859,-144 859,-144 865,-144 871,-150 871,-156 871,-156 871,-168 871,-168 871,-174 865,-180 859,-180"/>
<text text-anchor="middle" x="818" y="-159.5" font-family="sans" font-size="10.00">natural_mutations</text>
</g>
<!-- 6&#45;&gt;11 -->
<g id="edge28" class="edge"><title>6&#45;&gt;11</title>
<path fill="none" stroke="grey" stroke-width="2" d="M584.574,-300.91C657.013,-294.913 769.235,-281.119 799,-252 815.2,-236.152 819.211,-210.123 819.606,-190.297"/>
<polygon fill="grey" stroke="grey" stroke-width="2" points="823.103,-189.991 819.508,-180.025 816.104,-190.057 823.103,-189.991"/>
</g>
<!-- 12 -->
<g id="node13" class="node"><title>12</title>
<path fill="none" stroke="#c6d856" stroke-width="2" d="M540.5,-108C540.5,-108 465.5,-108 465.5,-108 459.5,-108 453.5,-102 453.5,-96 453.5,-96 453.5,-84 453.5,-84 453.5,-78 459.5,-72 465.5,-72 465.5,-72 540.5,-72 540.5,-72 546.5,-72 552.5,-78 552.5,-84 552.5,-84 552.5,-96 552.5,-96 552.5,-102 546.5,-108 540.5,-108"/>
<text text-anchor="middle" x="503" y="-87.5" font-family="sans" font-size="10.00">homolog_escape</text>
</g>
<!-- 6&#45;&gt;12 -->
<g id="edge30" class="edge"><title>6&#45;&gt;12</title>
<path fill="none" stroke="grey" stroke-width="2" d="M519.557,-287.849C516.444,-250.832 509.071,-163.181 505.304,-118.386"/>
<polygon fill="grey" stroke="grey" stroke-width="2" points="508.775,-117.904 504.449,-108.232 501.8,-118.491 508.775,-117.904"/>
</g>
<!-- 13 -->
<g id="node14" class="node"><title>13</title>
<path fill="none" stroke="#5673d8" stroke-width="2" d="M659,-108C659,-108 583,-108 583,-108 577,-108 571,-102 571,-96 571,-96 571,-84 571,-84 571,-78 577,-72 583,-72 583,-72 659,-72 659,-72 665,-72 671,-78 671,-84 671,-84 671,-96 671,-96 671,-102 665,-108 659,-108"/>
<text text-anchor="middle" x="621" y="-87.5" font-family="sans" font-size="10.00">make_supp_data</text>
</g>
<!-- 6&#45;&gt;13 -->
<g id="edge31" class="edge"><title>6&#45;&gt;13</title>
<path fill="none" stroke="grey" stroke-width="2" d="M523.313,-287.933C528.045,-257.299 540.85,-191.736 569,-144 575.178,-133.523 583.867,-123.568 592.376,-115.175"/>
<polygon fill="grey" stroke="grey" stroke-width="2" points="594.868,-117.636 599.739,-108.227 590.064,-112.544 594.868,-117.636"/>
</g>
<!-- 7&#45;&gt;0 -->
<g id="edge1" class="edge"><title>7&#45;&gt;0</title>
<path fill="none" stroke="grey" stroke-width="2" d="M724.29,-215.975C729.528,-183.311 735.658,-111.584 698,-72 669.216,-41.7437 554.671,-28.1769 483.415,-22.56"/>
<polygon fill="grey" stroke="grey" stroke-width="2" points="483.468,-19.054 473.232,-21.7879 482.938,-26.034 483.468,-19.054"/>
</g>
<!-- 7&#45;&gt;8 -->
<g id="edge24" class="edge"><title>7&#45;&gt;8</title>
<path fill="none" stroke="grey" stroke-width="2" d="M697.022,-215.697C684.689,-206.796 669.484,-195.823 656.147,-186.199"/>
<polygon fill="grey" stroke="grey" stroke-width="2" points="657.859,-183.118 647.702,-180.104 653.763,-188.794 657.859,-183.118"/>
</g>
<!-- 7&#45;&gt;11 -->
<g id="edge27" class="edge"><title>7&#45;&gt;11</title>
<path fill="none" stroke="grey" stroke-width="2" d="M744.978,-215.697C757.311,-206.796 772.516,-195.823 785.853,-186.199"/>
<polygon fill="grey" stroke="grey" stroke-width="2" points="788.237,-188.794 794.298,-180.104 784.141,-183.118 788.237,-188.794"/>
</g>
<!-- 8&#45;&gt;0 -->
<g id="edge9" class="edge"><title>8&#45;&gt;0</title>
<path fill="none" stroke="grey" stroke-width="2" d="M647.819,-143.777C670.598,-125.218 698.894,-95.2245 680,-72 655.674,-42.0983 550.642,-28.5171 483.195,-22.7807"/>
<polygon fill="grey" stroke="grey" stroke-width="2" points="483.373,-19.2836 473.121,-21.9581 482.803,-26.2604 483.373,-19.2836"/>
</g>
<!-- 8&#45;&gt;13 -->
<g id="edge32" class="edge"><title>8&#45;&gt;13</title>
<path fill="none" stroke="grey" stroke-width="2" d="M623.258,-143.697C622.928,-135.983 622.531,-126.712 622.162,-118.112"/>
<polygon fill="grey" stroke="grey" stroke-width="2" points="625.658,-117.945 621.733,-108.104 618.665,-118.245 625.658,-117.945"/>
</g>
<!-- 9&#45;&gt;0 -->
<g id="edge4" class="edge"><title>9&#45;&gt;0</title>
<path fill="none" stroke="grey" stroke-width="2" d="M405.188,-143.827C405.611,-125.821 406.934,-96.7564 411,-72 412.425,-63.3205 414.646,-54.0001 416.903,-45.6328"/>
<polygon fill="grey" stroke="grey" stroke-width="2" points="420.272,-46.5813 419.621,-36.0065 413.535,-44.6788 420.272,-46.5813"/>
</g>
<!-- 10 -->
<g id="node11" class="node"><title>10</title>
<path fill="none" stroke="#d88d56" stroke-width="2" d="M956,-252C956,-252 858,-252 858,-252 852,-252 846,-246 846,-240 846,-240 846,-228 846,-228 846,-222 852,-216 858,-216 858,-216 956,-216 956,-216 962,-216 968,-222 968,-228 968,-228 968,-240 968,-240 968,-246 962,-252 956,-252"/>
<text text-anchor="middle" x="907" y="-231.5" font-family="sans" font-size="10.00">gisaid_rbd_mutations</text>
</g>
<!-- 10&#45;&gt;0 -->
<g id="edge2" class="edge"><title>10&#45;&gt;0</title>
<path fill="none" stroke="grey" stroke-width="2" d="M905.056,-215.861C902.202,-196.832 895.43,-165.917 880,-144 849.093,-100.098 832.602,-92.5489 783,-72 683.276,-30.6864 556.168,-20.954 483.344,-19.0212"/>
<polygon fill="grey" stroke="grey" stroke-width="2" points="483.079,-15.5144 473.003,-18.7897 482.922,-22.5127 483.079,-15.5144"/>
</g>
<!-- 10&#45;&gt;11 -->
<g id="edge29" class="edge"><title>10&#45;&gt;11</title>
<path fill="none" stroke="grey" stroke-width="2" d="M885,-215.697C873.791,-206.881 859.998,-196.032 847.846,-186.474"/>
<polygon fill="grey" stroke="grey" stroke-width="2" points="849.771,-183.535 839.747,-180.104 845.443,-189.038 849.771,-183.535"/>
</g>
<!-- 11&#45;&gt;0 -->
<g id="edge10" class="edge"><title>11&#45;&gt;0</title>
<path fill="none" stroke="grey" stroke-width="2" d="M810.109,-143.735C799.693,-123.064 779.309,-89.0979 751,-72 706.99,-45.4193 564.667,-30.0709 483.365,-23.2616"/>
<polygon fill="grey" stroke="grey" stroke-width="2" points="483.533,-19.7637 473.28,-22.4345 482.961,-26.7403 483.533,-19.7637"/>
</g>
<!-- 12&#45;&gt;0 -->
<g id="edge5" class="edge"><title>12&#45;&gt;0</title>
<path fill="none" stroke="grey" stroke-width="2" d="M483.719,-71.6966C474.085,-63.0503 462.271,-52.4486 451.773,-43.027"/>
<polygon fill="grey" stroke="grey" stroke-width="2" points="453.839,-40.1786 444.059,-36.1043 449.164,-45.3883 453.839,-40.1786"/>
</g>
<!-- 13&#45;&gt;0 -->
<g id="edge13" class="edge"><title>13&#45;&gt;0</title>
<path fill="none" stroke="grey" stroke-width="2" d="M573.304,-71.9656C545.918,-62.185 511.342,-49.8365 482.466,-39.5236"/>
<polygon fill="grey" stroke="grey" stroke-width="2" points="483.505,-36.1781 472.91,-36.1108 481.15,-42.7703 483.505,-36.1781"/>
</g>
<!-- 14&#45;&gt;3 -->
<g id="edge15" class="edge"><title>14&#45;&gt;3</title>
<path fill="none" stroke="grey" stroke-width="2" d="M209.112,-503.697C214.868,-495.474 221.862,-485.483 228.206,-476.421"/>
<polygon fill="grey" stroke="grey" stroke-width="2" points="231.16,-478.304 234.027,-468.104 225.425,-474.29 231.16,-478.304"/>
</g>
<!-- 15 -->
<g id="node16" class="node"><title>15</title>
<path fill="none" stroke="#d8ac56" stroke-width="2" d="M667,-468C667,-468 581,-468 581,-468 575,-468 569,-462 569,-456 569,-456 569,-444 569,-444 569,-438 575,-432 581,-432 581,-432 667,-432 667,-432 673,-432 679,-438 679,-444 679,-444 679,-456 679,-456 679,-462 673,-468 667,-468"/>
<text text-anchor="middle" x="624" y="-447.5" font-family="sans" font-size="10.00">get_mut_bind_expr</text>
</g>
<!-- 15&#45;&gt;5 -->
<g id="edge20" class="edge"><title>15&#45;&gt;5</title>
<path fill="none" stroke="grey" stroke-width="2" d="M579.967,-431.876C555.032,-422.179 523.662,-409.98 497.338,-399.743"/>
<polygon fill="grey" stroke="grey" stroke-width="2" points="498.479,-396.431 487.89,-396.068 495.941,-402.955 498.479,-396.431"/>
</g>
<!-- 15&#45;&gt;8 -->
<g id="edge23" class="edge"><title>15&#45;&gt;8</title>
<path fill="none" stroke="grey" stroke-width="2" d="M624,-431.966C624,-384.291 624,-249.185 624,-190.63"/>
<polygon fill="grey" stroke="grey" stroke-width="2" points="627.5,-190.306 624,-180.306 620.5,-190.306 627.5,-190.306"/>
</g>
<!-- 16 -->
<g id="node17" class="node"><title>16</title>
<path fill="none" stroke="#d87556" stroke-width="2" d="M422.5,-468C422.5,-468 347.5,-468 347.5,-468 341.5,-468 335.5,-462 335.5,-456 335.5,-456 335.5,-444 335.5,-444 335.5,-438 341.5,-432 347.5,-432 347.5,-432 422.5,-432 422.5,-432 428.5,-432 434.5,-438 434.5,-444 434.5,-444 434.5,-456 434.5,-456 434.5,-462 428.5,-468 422.5,-468"/>
<text text-anchor="middle" x="385" y="-447.5" font-family="sans" font-size="10.00">get_variant_expr</text>
</g>
<!-- 16&#45;&gt;5 -->
<g id="edge19" class="edge"><title>16&#45;&gt;5</title>
<path fill="none" stroke="grey" stroke-width="2" d="M399.584,-431.697C406.658,-423.305 415.283,-413.07 423.045,-403.861"/>
<polygon fill="grey" stroke="grey" stroke-width="2" points="425.815,-406.006 429.583,-396.104 420.463,-401.495 425.815,-406.006"/>
</g>
<!-- 17 -->
<g id="node18" class="node"><title>17</title>
<path fill="none" stroke="#5692d8" stroke-width="2" d="M539,-468C539,-468 465,-468 465,-468 459,-468 453,-462 453,-456 453,-456 453,-444 453,-444 453,-438 459,-432 465,-432 465,-432 539,-432 539,-432 545,-432 551,-438 551,-444 551,-444 551,-456 551,-456 551,-462 545,-468 539,-468"/>
<text text-anchor="middle" x="502" y="-447.5" font-family="sans" font-size="10.00">get_variant_bind</text>
</g>
<!-- 17&#45;&gt;5 -->
<g id="edge18" class="edge"><title>17&#45;&gt;5</title>
<path fill="none" stroke="grey" stroke-width="2" d="M487.663,-431.697C480.709,-423.305 472.23,-413.07 464.599,-403.861"/>
<polygon fill="grey" stroke="grey" stroke-width="2" points="467.247,-401.571 458.172,-396.104 461.857,-406.038 467.247,-401.571"/>
</g>
</g>
</svg>
